<svg width="226" height="101" viewBox="0 0 226 101" fill="none" xmlns="http://www.w3.org/2000/svg">
<rect width="226" height="101" rx="25" fill="url(#paint0_linear_1456_302)"/>
<rect x="16" y="12" width="194" height="77" rx="20" fill="#06232D"/>
<path d="M80.1992 64.074C78.3254 64.074 76.6052 63.5623 75.0693 62.5707C73.5335 61.5791 72.3048 60.2037 71.3833 58.5404C70.4617 56.8451 70.001 54.9899 70.001 52.9107C70.001 50.8316 70.2774 49.904 70.7996 48.5606C71.3218 47.2171 72.059 46.0336 72.9806 45.0101C73.9021 43.9865 75.0079 43.1868 76.2366 42.6111C77.4653 42.0353 78.7862 41.7474 80.1992 41.7474C81.6122 41.7474 83.7931 42.2592 85.329 43.2508C86.8648 44.2424 88.0935 45.6178 89.015 47.3131C89.9366 49.0084 90.3973 50.8956 90.3973 52.9747C90.3973 55.0538 90.1209 55.9495 89.5987 57.2929C89.0765 58.6363 88.3393 59.8198 87.4177 60.8434C86.4962 61.867 85.4211 62.6666 84.1617 63.2424C82.933 63.8181 81.6122 64.106 80.1992 64.106V64.074ZM80.1992 58.8922C81.1821 58.8922 82.0729 58.6043 82.8716 58.0606C83.6702 57.5168 84.2846 56.7811 84.7453 55.8855C85.2061 54.9899 85.4211 53.9983 85.4211 52.9107C85.4211 51.8232 85.1754 50.7996 84.7146 49.872C84.2539 48.9444 83.6088 48.2407 82.8101 47.6969C82.0115 47.1532 81.1514 46.8653 80.1992 46.8653C79.2469 46.8653 78.3254 47.1532 77.5575 47.6969C76.7588 48.2407 76.1445 48.9764 75.6837 49.904C75.2229 50.8316 74.9772 51.8232 74.9772 52.9107C74.9772 53.9983 75.2229 55.0538 75.6837 55.9495C76.1445 56.8451 76.7895 57.5808 77.5882 58.0926C78.3868 58.6043 79.2469 58.8922 80.1992 58.8922Z" fill="white"/>
<path d="M93.2847 63.5303V31.6717H98.2609V63.4983H93.2847V63.5303Z" fill="white"/>
<path d="M115.494 57.133L119.978 59.6599C119.026 61.0033 117.859 62.0589 116.446 62.8585C115.033 63.6582 113.497 64.074 111.808 64.074C110.118 64.074 108.214 63.5623 106.678 62.5707C105.142 61.5791 103.913 60.2037 102.992 58.5404C102.07 56.8451 101.609 54.9899 101.609 52.9107C101.609 50.8316 101.886 49.904 102.408 48.5606C102.93 47.2171 103.667 46.0336 104.589 45.0101C105.51 43.9865 106.616 43.1868 107.845 42.6111C109.074 42.0353 110.395 41.7474 111.808 41.7474C113.221 41.7474 115.033 42.1633 116.446 42.9629C117.859 43.7626 119.026 44.8501 119.978 46.2256L115.494 48.7205C115.002 48.1447 114.449 47.7289 113.804 47.4091C113.159 47.0892 112.483 46.9293 111.808 46.9293C110.825 46.9293 109.934 47.2171 109.166 47.7609C108.367 48.3047 107.753 49.0404 107.292 49.968C106.831 50.8956 106.586 51.8872 106.586 52.9427C106.586 53.9983 106.831 54.9899 107.292 55.9175C107.753 56.8451 108.367 57.5488 109.166 58.1245C109.965 58.6683 110.825 58.9562 111.808 58.9562C112.791 58.9562 113.19 58.7963 113.835 58.4764C114.48 58.1565 115.033 57.7407 115.494 57.1969V57.133Z" fill="white"/>
<path d="M138.378 42.2912H143.354V63.5303H138.378L138.163 60.9074C137.61 61.867 136.873 62.6346 135.951 63.2104C135.03 63.7862 133.955 64.106 132.695 64.106C131.436 64.106 129.777 63.8181 128.456 63.2104C127.135 62.6027 125.968 61.803 124.985 60.7474C123.971 59.6919 123.204 58.4764 122.651 57.133C122.098 55.7575 121.791 54.2862 121.791 52.7188C121.791 51.1515 122.067 49.7761 122.589 48.4646C123.111 47.1212 123.879 45.9697 124.832 44.9461C125.784 43.9545 126.92 43.1548 128.18 42.5791C129.439 42.0033 130.791 41.7155 132.265 41.7155C133.74 41.7155 134.815 42.0353 135.89 42.6431C136.965 43.2508 137.856 44.0505 138.624 45.0101L138.409 42.2912H138.378ZM132.572 59.0841C133.647 59.0841 134.569 58.7963 135.398 58.2525C136.228 57.7087 136.842 56.941 137.303 56.0134C137.764 55.0858 138.009 54.0303 138.009 52.9107C138.009 51.7912 137.764 50.7357 137.303 49.7761C136.842 48.8485 136.197 48.0808 135.368 47.537C134.538 46.9932 133.617 46.7054 132.572 46.7054C131.528 46.7054 130.576 46.9932 129.716 47.537C128.856 48.0808 128.18 48.8485 127.658 49.7761C127.135 50.7037 126.89 51.7592 126.89 52.9107C126.89 54.0623 127.135 55.0858 127.658 56.0454C128.18 56.973 128.856 57.7087 129.716 58.2845C130.576 58.8282 131.528 59.1161 132.572 59.1161V59.0841Z" fill="white"/>
<path d="M172.597 42.2912H177.573V63.5303H172.597L172.382 60.9074C171.829 61.867 171.092 62.6346 170.17 63.2104C169.249 63.7862 168.174 64.106 166.914 64.106C165.655 64.106 163.996 63.8181 162.675 63.2104C161.355 62.6027 160.187 61.803 159.204 60.7474C158.191 59.6919 157.423 58.4764 156.87 57.133C156.317 55.7575 156.01 54.2862 156.01 52.7188C156.01 51.1515 156.286 49.7761 156.808 48.4646C157.331 47.1212 158.099 45.9697 159.051 44.9461C160.003 43.9545 161.14 43.1548 162.399 42.5791C163.658 42.0033 165.01 41.7155 166.484 41.7155C167.959 41.7155 169.034 42.0353 170.109 42.6431C171.184 43.2508 172.075 44.0505 172.843 45.0101L172.628 42.2912H172.597ZM166.792 59.0841C167.867 59.0841 168.788 58.7963 169.618 58.2525C170.447 57.7087 171.061 56.941 171.522 56.0134C171.983 55.0858 172.229 54.0303 172.229 52.9107C172.229 51.7912 171.983 50.7357 171.522 49.7761C171.061 48.8485 170.416 48.0808 169.587 47.537C168.757 46.9932 167.836 46.7054 166.792 46.7054C165.747 46.7054 164.795 46.9932 163.935 47.537C163.075 48.0808 162.399 48.8485 161.877 49.7761C161.355 50.7037 161.109 51.7592 161.109 52.9107C161.109 54.0623 161.355 55.0858 161.877 56.0454C162.399 56.973 163.075 57.7087 163.935 58.2845C164.795 58.8282 165.747 59.1161 166.792 59.1161V59.0841Z" fill="white"/>
<path d="M184.177 39.5404C183.44 39.5404 182.826 39.2845 182.334 38.7727C181.843 38.2609 181.566 37.6212 181.566 36.8855C181.566 36.1498 181.812 35.5101 182.334 34.9983C182.826 34.4865 183.44 34.2306 184.177 34.2306C184.915 34.2306 185.498 34.4865 185.99 34.9983C186.481 35.5101 186.727 36.1498 186.727 36.8855C186.727 37.6212 186.481 38.2929 185.99 38.7727C185.498 39.2845 184.884 39.5404 184.177 39.5404ZM181.659 42.2912H186.635V63.5303H181.659V42.2912Z" fill="white"/>
<path d="M54.6113 42.9949C56.7001 42.9949 58.6353 43.8906 60.0176 45.298L61.6763 43.1869C59.8333 41.3636 57.3452 40.2761 54.6113 40.2761C48.9286 40.2761 44.321 45.0741 44.321 50.9916C44.321 56.9091 48.9286 61.7071 54.6113 61.7071V58.9882C50.3723 58.9882 46.932 55.4057 46.932 50.9916C46.932 46.5774 50.3723 42.9949 54.6113 42.9949ZM62.2907 58.8283C59.9562 58.8283 58.0517 60.6195 57.7445 62.9545C56.7308 63.2424 55.6557 63.4024 54.5806 63.4024C48.0071 63.4024 42.6623 57.8367 42.6623 50.9916C42.6623 44.1465 48.0071 38.5808 54.5806 38.5808C61.1541 38.5808 60.8163 39.9562 62.9665 42.1633L65.5467 38.9007C62.69 36.0859 58.8196 34.3586 54.5806 34.3586C48.0993 34.3586 42.5394 38.3569 40.0206 44.1145H36.9488C36.7031 44.1145 36.4881 44.2744 36.3959 44.5303C35.9966 45.8417 34.9829 50.1279 36.3959 54.8939C36.4574 55.1498 36.6724 55.3098 36.9488 55.3098H39.1298C40.9728 62.4108 47.1777 67.6246 54.5499 67.6246C61.9221 67.6246 57.5909 67.4007 59.0039 66.9529C59.8333 67.8165 60.9698 68.3603 62.26 68.3603C64.7788 68.3603 66.8369 66.2172 66.8369 63.5943C66.8369 60.9714 64.7788 58.8283 62.26 58.8283H62.2907Z" fill="#FCC057"/>
<path d="M153.924 61.2013C154.214 59.3354 152.997 57.5778 151.205 57.2756C149.413 56.9733 147.725 58.241 147.435 60.1069C147.144 61.9728 148.362 63.7304 150.154 64.0326C151.946 64.3348 153.633 63.0672 153.924 61.2013Z" fill="#FCC057"/>
<path d="M185.442 39.4291C186.947 38.7801 187.661 36.9838 187.038 35.417C186.415 33.8502 184.69 33.1061 183.185 33.7551C181.681 34.4041 180.966 36.2004 181.589 37.7672C182.213 39.334 183.938 40.078 185.442 39.4291Z" fill="#FCC057"/>
<defs>
<linearGradient id="paint0_linear_1456_302" x1="113" y1="0" x2="113" y2="101" gradientUnits="userSpaceOnUse">
<stop stop-color="#125373"/>
<stop offset="0.5" stop-color="#2D7F74"/>
<stop offset="1" stop-color="#A6A65D"/>
</linearGradient>
</defs>
</svg>
